<svg id="_30-sawasdee" data-name="30-sawasdee" xmlns="http://www.w3.org/2000/svg" width="66.281" height="92.327" viewBox="0 0 66.281 92.327">
  <path id="Path_5370" data-name="Path 5370" d="M40.443,27.542H39V24.657h1.109l1.637-.8a3.318,3.318,0,0,0,1.581-2.7V19.917c0-.558-.661-1.03-1.443-1.03H40.443V16h1.443a4.142,4.142,0,0,1,4.328,3.915v1.236a6.2,6.2,0,0,1-2.97,5.17,1.463,1.463,0,0,1-.144.084l-2.02.988a1.443,1.443,0,0,1-.636.147Z" transform="translate(-0.049 7.08)" fill="#fff"/>
  <path id="Path_5371" data-name="Path 5371" d="M27.213,27.542H25.77a1.443,1.443,0,0,1-.633-.144l-2.02-.988a1.464,1.464,0,0,1-.144-.084A6.2,6.2,0,0,1,20,21.153V19.917A4.142,4.142,0,0,1,24.328,16H25.77v2.885H24.328c-.782,0-1.443.472-1.443,1.03v1.236a3.318,3.318,0,0,0,1.587,2.7l1.632.8h1.109Z" transform="translate(-8.459 7.08)" fill="#fff"/>
  <path id="Path_5372" data-name="Path 5372" d="M15.866,59.942l-2.856-.41,2.38-16.665a7.177,7.177,0,0,1,4.86-5.822L33.192,32.73V28h2.885v5.77a1.443,1.443,0,0,1-.987,1.368L21.164,39.78a4.3,4.3,0,0,0-2.916,3.5Z" transform="translate(-11.553 12.393)" fill="#fff"/>
  <path id="Path_5373" data-name="Path 5373" d="M20.389,74.623A8.4,8.4,0,0,1,12,66.234V65.018a8.367,8.367,0,0,1,.085-1.186l.959-6.725,2.856.41-.959,6.72a5.59,5.59,0,0,0-.056.778V66.23a5.5,5.5,0,0,0,9.645,3.633l8.022-9.168a1.443,1.443,0,0,1,1.086-.5h1.8c2.188,0,3.967-2.184,3.967-4.869V43a.636.636,0,0,0-.12-.115c-1.479.079-2.139,1.617-2.406,2.545a1.363,1.363,0,0,1-.065.182L32.075,56.446a1.443,1.443,0,0,1-.521.622L18.571,65.723l-1.6-2.4L29.6,54.9l4.538-10.361C34.987,41.7,36.957,40,39.41,40a3.08,3.08,0,0,1,2.885,2.885V55.328c0,4.276-3.074,7.754-6.852,7.754H34.288L26.7,71.758a8.387,8.387,0,0,1-6.307,2.865ZM39.244,42.861Z" transform="translate(-12 17.705)" fill="#fff"/>
  <path id="Path_5374" data-name="Path 5374" d="M52.906,79.934a8.387,8.387,0,0,1-6.313-2.865L39,68.393H37.847c-3.772,0-6.847-3.478-6.847-7.754V48.2a3.08,3.08,0,0,1,2.885-2.885c2.452,0,4.423,1.7,5.27,4.541l4.54,10.361,12.632,8.422-1.6,2.4L41.742,62.38a1.443,1.443,0,0,1-.521-.622L36.482,50.926a1.364,1.364,0,0,1-.065-.182c-.267-.928-.928-2.465-2.406-2.545a.636.636,0,0,0-.126.113V60.639c0,2.685,1.779,4.869,3.967,4.869h1.8A1.443,1.443,0,0,1,40.742,66l8.022,9.172a5.5,5.5,0,0,0,9.645-3.628V70.329a5.59,5.59,0,0,0-.056-.778L54.6,43.276a4.3,4.3,0,0,0-2.916-3.5L37.76,35.138a1.443,1.443,0,0,1-.99-1.368V28h2.885v4.73L52.6,37.045a7.177,7.177,0,0,1,4.86,5.822l3.751,26.276a8.367,8.367,0,0,1,.085,1.186v1.216a8.4,8.4,0,0,1-8.387,8.389ZM34.051,48.172Z" transform="translate(-3.59 12.393)" fill="#fff"/>
  <rect id="Rectangle_17443" data-name="Rectangle 17443" width="5.691" height="2.885" transform="translate(33.314 49.247) rotate(-30.446)" fill="#fff"/>
  <rect id="Rectangle_17444" data-name="Rectangle 17444" width="2.845" height="2.885" transform="translate(28.41 52.132) rotate(-30.446)" fill="#fff"/>
  <path id="Path_5375" data-name="Path 5375" d="M22.128,62.264l-1.086-1.63a12.148,12.148,0,0,1-.757-12.176l1.753-3.508a1.443,1.443,0,0,1,.56-.6l12.262-7.213,1.463,2.487-11.894,7-1.562,3.128a9.259,9.259,0,0,0,.577,9.283l1.086,1.63Z" transform="translate(-8.902 16.438)" fill="#fff"/>
  <path id="Path_5376" data-name="Path 5376" d="M47.76,66.334H24.678a1.443,1.443,0,0,1-1.443-1.443V62.208l-.767-2.686,2.776-.792.822,2.885a1.453,1.453,0,0,1,.055.391v1.443h20.2V62.007a1.453,1.453,0,0,1,.055-.4l.824-2.885,2.776.791L49.2,62.208v2.683A1.443,1.443,0,0,1,47.76,66.334Z" transform="translate(-7.367 25.993)" fill="#fff"/>
  <path id="Path_5377" data-name="Path 5377" d="M43.569,57.5l-2.4-1.6,1.086-1.63a9.267,9.267,0,0,0,1.509-6.081l2.871-.289c.04.41.062.819.062,1.231a12.108,12.108,0,0,1-2.041,6.741Z" transform="translate(0.91 21.201)" fill="#fff"/>
  <path id="Path_5378" data-name="Path 5378" d="M39.952,54.263,38.495,51.77C42.187,49.615,49.248,46,55.092,46v2.885C51.321,48.885,45.8,50.844,39.952,54.263Z" transform="translate(-0.273 20.36)" fill="#fff"/>
  <path id="Path_5379" data-name="Path 5379" d="M28.885,67.229H26c0-4.99,7.453-11.3,10.658-13.783l1.766,2.282C31.835,60.829,28.885,65.18,28.885,67.229Z" transform="translate(-5.803 23.656)" fill="#fff"/>
  <rect id="Rectangle_17445" data-name="Rectangle 17445" width="2.884" height="9.125" transform="matrix(0.316, -0.949, 0.949, 0.316, 3.872, 64.844)" fill="#fff"/>
  <rect id="Rectangle_17446" data-name="Rectangle 17446" width="2.885" height="8.105" transform="translate(3.814 69.151) rotate(-69.146)" fill="#fff"/>
  <path id="Path_5380" data-name="Path 5380" d="M44.565,21.261H41.679V15.49a9.986,9.986,0,0,0-2.214-6.31l2.25-1.806a13.018,13.018,0,0,1,2.849,8.116Z" transform="translate(0.156 3.264)" fill="#fff"/>
  <path id="Path_5381" data-name="Path 5381" d="M23.885,22.754H21v-5.77A13,13,0,0,1,33.984,4h5.77a12.971,12.971,0,0,1,8.585,3.243L46.432,9.407a10.1,10.1,0,0,0-6.678-2.522h-5.77a10.111,10.111,0,0,0-10.1,10.1Z" transform="translate(-8.016 1.77)" fill="#fff"/>
  <path id="Path_5382" data-name="Path 5382" d="M43.311,8.656H40.426a5.77,5.77,0,1,0-11.541,0H26a8.656,8.656,0,1,1,17.311,0Z" transform="translate(-5.803)" fill="#fff"/>
  <path id="Path_5383" data-name="Path 5383" d="M35.985,38.833A13.374,13.374,0,0,1,23,25.128V17.193a1.443,1.443,0,0,1,1.443-1.443c5.1,0,9.015-2.5,10.25-4.973a1.5,1.5,0,0,1,2.582,0c1.235,2.471,5.153,4.973,10.25,4.973a1.443,1.443,0,0,1,1.443,1.443v7.934A13.374,13.374,0,0,1,35.985,38.833ZM25.887,18.58v6.548a10.489,10.489,0,0,0,10.1,10.82,10.489,10.489,0,0,0,10.1-10.82V18.58a15.071,15.071,0,0,1-10.1-4.638A15.071,15.071,0,0,1,25.887,18.58Z" transform="translate(-7.133 4.446)" fill="#fff"/>
  <rect id="Rectangle_17447" data-name="Rectangle 17447" width="2.887" height="15.269" transform="translate(58.559 76.927) rotate(-19.092)" fill="#fff"/>
  <rect id="Rectangle_17448" data-name="Rectangle 17448" width="2.887" height="19.834" transform="translate(51.072 55.296) rotate(-19.091)" fill="#fff"/>
</svg>
