<svg id="cathedral" xmlns="http://www.w3.org/2000/svg" width="72.858" height="86.557" viewBox="0 0 72.858 86.557">
  <path id="Path_5362" data-name="Path 5362" d="M75.017,362.443v3.066a1.443,1.443,0,1,0,2.885,0v-3.066a1.443,1.443,0,0,0-2.885,0Z" transform="translate(-68.339 -295.902)" fill="#fff"/>
  <path id="Path_5363" data-name="Path 5363" d="M110.508,58.226l-8.385-10.1a1.443,1.443,0,0,0-2.22,0l-2.749,3.31a1.443,1.443,0,1,0,2.22,1.843l1.639-1.974,6.943,8.361v24H98.218V71.59a1.443,1.443,0,0,0-.82-1.3L94.07,68.7V60.59h7.585a1.443,1.443,0,0,0,0-2.885H94.07c0-6.162.017-5.86-.04-6.1a1.447,1.447,0,0,0-.607-.869c-.534-.342,2.267,1.48-7.255-4.741a1.443,1.443,0,0,0-1.578,2.415l3.193,2.086H69.546a1.443,1.443,0,1,0,0,2.885H91.185V69.606a1.443,1.443,0,0,0,.82,1.3L95.332,72.5V83.671H80.546V73.934a6.131,6.131,0,1,0-12.262,0V77.18a1.443,1.443,0,1,0,2.885,0V73.934a3.246,3.246,0,0,1,6.492,0v9.738H64.316v-20.2h20.2v13.7a1.443,1.443,0,1,0,2.885,0V62.032a1.443,1.443,0,0,0-1.443-1.443H62.874a1.443,1.443,0,0,0-1.443,1.443V83.671H40.874V60.59h7.242a1.443,1.443,0,0,0,0-2.885H42.5l5.312-6.4,6.943,8.361V68.7l-3.327,1.591a1.443,1.443,0,0,0-.82,1.3v5.59a1.443,1.443,0,1,0,2.885,0V72.5l3.327-1.591a1.443,1.443,0,0,0,.82-1.3V52.714l16.77-10.959,4.08,2.666a1.443,1.443,0,0,0,2.218-1.4c.02-.153.014.342.014-6.235a1.443,1.443,0,1,0-2.885,0v3.761L75.2,38.825a1.443,1.443,0,0,0-1.578,0l-2.637,1.723V36.787a1.443,1.443,0,0,0-2.885,0v5.647l-3.787,2.475V30.475h20.2v8.656a1.443,1.443,0,1,0,2.885,0V30.475H88.66a1.443,1.443,0,1,0,0-2.885H85.054V26.328a10.626,10.626,0,0,0-2.641-7.014,8.808,8.808,0,0,1-2.228-5.8V12.8a5.781,5.781,0,0,0-4.328-5.588V1.443a1.443,1.443,0,0,0-2.885,0V7.215A5.781,5.781,0,0,0,68.644,12.8v.714a8.809,8.809,0,0,1-2.228,5.8A10.569,10.569,0,0,0,64.3,23.03a1.443,1.443,0,0,0,2.743.894,7.7,7.7,0,0,1,1.544-2.707,11.691,11.691,0,0,0,2.945-7.7V12.8a2.885,2.885,0,1,1,5.77,0v.714a11.692,11.692,0,0,0,2.945,7.7,7.742,7.742,0,0,1,1.924,5.111V27.59h-22a1.443,1.443,0,0,0,0,2.885h1.262V46.793l-6.019,3.933a1.443,1.443,0,0,0-.654,1.208v3.217l-5.833-7.024a1.443,1.443,0,0,0-2.22,0c-9.153,11.022-8.514,10.183-8.641,10.557-.116.344-.077-.538-.077,26.429a1.443,1.443,0,0,0,1.443,1.443H109.4a1.443,1.443,0,0,0,1.443-1.443V59.147a1.442,1.442,0,0,0-.333-.921Z" transform="translate(-37.982 0)" fill="#fff"/>
  <path id="Path_5364" data-name="Path 5364" d="M389.017,362.443v3.066a1.443,1.443,0,1,0,2.885,0v-3.066a1.443,1.443,0,0,0-2.885,0Z" transform="translate(-325.716 -295.902)" fill="#fff"/>
</svg>
