<svg xmlns="http://www.w3.org/2000/svg" width="70.205" height="90.124" viewBox="0 0 70.205 90.124">
  <path id="deer" d="M17.456,22.062l-.018.018a5.5,5.5,0,0,0-.538.647,10.369,10.369,0,0,0-1.171-.621c-2.976-1.341-6.48.313-6.627.385l-.887.427.267.947c.044.158,1.125,3.879,4.1,5.22a9.143,9.143,0,0,0,3.668.853l.13,0,.384,3.238a6.814,6.814,0,0,0,.405,2V49.913a12.779,12.779,0,0,0,.5,3.741,9.584,9.584,0,0,0,2.139,3.759L23.726,70.8l-.942,16.983h-.7a1.205,1.205,0,0,0-1.221,1.137,1.172,1.172,0,0,0,1.171,1.207h6.749L30.7,72.917V71.031l7.508,16.749H37.5a1.2,1.2,0,0,0-1.221,1.137,1.171,1.171,0,0,0,1.171,1.207h8.73l-5.65-12.837-.055-.113A18.128,18.128,0,0,1,38.6,69.781a12.892,12.892,0,0,0,2.5-4.847,31.7,31.7,0,0,0,8.58,1.028,23.293,23.293,0,0,0,4.151-.375,8.9,8.9,0,0,0,3.129,5.066,4.941,4.941,0,0,1,2.008,3.794L55.388,87.779H54.271a1.206,1.206,0,0,0-1.221,1.137,1.172,1.172,0,0,0,1.171,1.207h6.307l2.944-10.095v7.751h-.637a1.205,1.205,0,0,0-1.221,1.135,1.173,1.173,0,0,0,1.172,1.209h6.665v-11.6l1.093-9.189c.26-1.8-.482-2.6-.948-2.911-1.154-.78-1.732-2.126-1.766-4.11L69.2,58.126l.371-1.964a11.807,11.807,0,0,0,.077-3.928V46.183a11.421,11.421,0,0,0-4.435-8.851,1.813,1.813,0,0,0-1.912-.214,1.651,1.651,0,0,0-.96,1.491v4.41a11.794,11.794,0,0,0-4.353-.832H54.272a1.206,1.206,0,0,0-1.221,1.136,1.172,1.172,0,0,0,1.172,1.208h3.628A9.607,9.607,0,0,1,65,47.645a9.419,9.419,0,0,1,2.272,8.082l-.342,1.814-1.444,4.407v.187c0,2.85.921,4.933,2.737,6.193a1.717,1.717,0,0,1,0,.688l-1.107,9.305-.008.069v9.389h-1.29V73.067A7.346,7.346,0,0,0,65.74,72l-.014-.094a7.668,7.668,0,0,0-2.89-4.864,8.338,8.338,0,0,1-2.491-4.617l-.015-.059a20.051,20.051,0,0,1-.422-2.353c-.054-.435-.094-.879-.12-1.327a1.54,1.54,0,0,0-2.2-1.3A14.792,14.792,0,0,1,51.2,58.843a21.333,21.333,0,0,1-8.959-1.63c-.455-.206-.91-.437-1.356-.685a1.54,1.54,0,0,0-2.213,1.825,10.569,10.569,0,0,1,.444,4.619c-.013.1-.029.207-.044.3l0,.032a10.666,10.666,0,0,1-2.438,5.181,1.544,1.544,0,0,0-.378,1.014v.024A20.474,20.474,0,0,0,38.4,78.259l4.19,9.521H40.779L30.449,64.739a8.623,8.623,0,0,0-1.026-2.429L26.4,55.143a5.226,5.226,0,0,0-1.336-1.855,4.7,4.7,0,0,1-1.56-3.495V47.626A1.205,1.205,0,0,0,22.366,46.4a1.173,1.173,0,0,0-1.208,1.172V49.6a7.259,7.259,0,0,0,2.364,5.456,2.8,2.8,0,0,1,.717,1l1.1,2.609A15.413,15.413,0,0,1,21.7,56.014a7.354,7.354,0,0,1-1.789-3.037,10.494,10.494,0,0,1-.4-3.064V38.479A4.66,4.66,0,0,0,22.33,39.5h1.46a5.239,5.239,0,0,0,4.117-2.331l.8,2.112a8.132,8.132,0,0,0,7.606,5.255H47.586A1.205,1.205,0,0,0,48.807,43.4a1.173,1.173,0,0,0-1.172-1.208H36.311a5.817,5.817,0,0,1-5.413-3.74l-1.2-3.173a5.426,5.426,0,0,1-.341-2.12v-.011l.366-3.209.125,0a9.139,9.139,0,0,0,3.667-.853c2.975-1.341,4.057-5.061,4.1-5.219l.268-.948L37,22.491c-.148-.072-3.653-1.725-6.628-.385a10.425,10.425,0,0,0-1.182.628,5.527,5.527,0,0,0-.522-.633A22.826,22.826,0,0,0,45.889,1.235a1.172,1.172,0,0,0-2.34-.139A20.444,20.444,0,0,1,34.314,17.1a13.772,13.772,0,0,0,2.677-8.172V6.3A1.171,1.171,0,0,0,35.82,5.128h0A1.172,1.172,0,0,0,34.648,6.3V8.93a11.51,11.51,0,0,1-5.723,9.941,6.21,6.21,0,0,0,.451-2.325V12.658A1.172,1.172,0,0,0,28.2,11.486h0a1.171,1.171,0,0,0-1.171,1.171v3.794a3.952,3.952,0,0,1-3.739,3.981,3.893,3.893,0,0,1-4.038-3.886V12.658a1.172,1.172,0,0,0-1.172-1.171h0a1.171,1.171,0,0,0-1.171,1.171v3.889a6.2,6.2,0,0,0,.451,2.325,11.51,11.51,0,0,1-5.723-9.941V6.3a1.172,1.172,0,0,0-1.172-1.171h0A1.172,1.172,0,0,0,9.292,6.3V8.93A13.777,13.777,0,0,0,11.97,17.1,20.444,20.444,0,0,1,2.735,1.1a1.172,1.172,0,0,0-2.34.139A22.828,22.828,0,0,0,17.456,22.061Zm-3.911,4.886a5.461,5.461,0,0,1-2.412-2.713,5.464,5.464,0,0,1,3.633.01,7.77,7.77,0,0,1,1.222.685,5.477,5.477,0,0,0-.073,1.083l.187,1.579a6.894,6.894,0,0,1-2.557-.645ZM67.307,46.761c-.08-.1-.158-.207-.242-.308a11.788,11.788,0,0,0-2.378-2.181V40.014a8.881,8.881,0,0,1,2.62,6.169Zm-8.869,17.5a9.454,9.454,0,0,0,2.956,4.627,5.34,5.34,0,0,1,1.97,3.137L58.771,87.78h-.956l3.5-13.031v-.155a7.256,7.256,0,0,0-2.939-5.809,6.609,6.609,0,0,1-2.26-3.731c.868-.249,1.638-.522,2.317-.79ZM51.2,61.188a17.054,17.054,0,0,0,6.345-1.221c.012.11.025.22.038.33.07.577.161,1.137.266,1.678a23.249,23.249,0,0,1-2.536.873,20.836,20.836,0,0,1-5.625.771A29.332,29.332,0,0,1,41.5,62.613a12.866,12.866,0,0,0-.164-3.233A23.68,23.68,0,0,0,51.2,61.188Zm-26.579-.244.645.409a6.95,6.95,0,0,1,1.531,1.316c.133.154.256.315.374.479L28.221,65.5a5.439,5.439,0,0,1,.135,1.15v6.136L26.682,87.779h-1.55l.957-17.255L23.011,60.006c.492.309,1.024.62,1.606.937Zm5.478-36a7.846,7.846,0,0,1,1.237-.7,5.467,5.467,0,0,1,3.63-.01,5.487,5.487,0,0,1-2.411,2.714,6.9,6.9,0,0,1-2.562.645l.172-1.505.007-.1a5.469,5.469,0,0,0-.073-1.045ZM23.789,37.152H22.33A2.934,2.934,0,0,1,20.137,35.8a2.984,2.984,0,0,1,5.829.022,2.927,2.927,0,0,1-2.177,1.331ZM19.12,23.711a3.043,3.043,0,0,1,2.2-.931h3.44a3.064,3.064,0,0,1,3.064,3.1l-.8,7.031a5.32,5.32,0,0,0-7.938-.016l-.83-7a3.039,3.039,0,0,1,.864-2.182Zm0,0" transform="translate(-0.393 0)" fill="#fff"/>
</svg>
