<svg xmlns="http://www.w3.org/2000/svg" width="73.044" height="92.327" viewBox="0 0 73.044 92.327">
  <path id="temple_2_" data-name="temple (2)" d="M124.437,84.393h-4.509V63.549a4.364,4.364,0,0,0-1.352-8.513h-8.123L106.573,29.2A16.938,16.938,0,0,0,91.342,14.98V10.866l8.878-6.621a2.323,2.323,0,0,0,.828-2.631A2.324,2.324,0,0,0,98.81,0H89.989a1.352,1.352,0,0,0-1.352,1.352V14.979a16.761,16.761,0,0,0-2.578.409,1.352,1.352,0,0,0,.633,2.63,14.082,14.082,0,0,1,12.47,3.013H80.816a14.154,14.154,0,0,1,1.811-1.323,1.352,1.352,0,1,0-1.417-2.3,16.745,16.745,0,0,0-7.8,11.8l-3.88,25.834H61.4a4.364,4.364,0,0,0-1.352,8.513V84.393H55.541a2.076,2.076,0,0,0-2.074,2.074v1.8a3.8,3.8,0,0,0,3.475,4.057h66.093a3.8,3.8,0,0,0,3.475-4.057v-1.8A2.076,2.076,0,0,0,124.437,84.393ZM91.342,2.7H97.76L91.342,7.492Zm12.58,27.055.784,5.22h-2.377a1.352,1.352,0,0,0,0,2.7h2.783l1.4,9.343h-2.331a1.352,1.352,0,0,0,0,2.7h2.738l.8,5.3H99.675l-.727-6.751a.028.028,0,0,1,0,0L96.955,29.76h6.967Zm-8.83,7.966L96.1,47.069H83.881l1.006-9.343Zm-9.914-2.7.566-5.262h8.49l.566,5.262ZM96.388,49.774l.566,5.262H83.024l.566-5.262Zm-18-26.038h23.194a14.069,14.069,0,0,1,1.681,3.319H76.71A14.037,14.037,0,0,1,78.39,23.736Zm-5.332,26h2.737a1.352,1.352,0,0,0,0-2.7H73.464l1.4-9.343h2.738a1.352,1.352,0,0,0,0-2.7H75.273l.784-5.22h6.967L81.03,48.281a.026.026,0,0,0,0,0L80.3,55.036H72.261ZM59.743,59.4a1.661,1.661,0,0,1,1.66-1.66h57.173a1.66,1.66,0,1,1,0,3.319H102.52a1.352,1.352,0,0,0,0,2.7h1.4V84.393H97.91V70.444a3.364,3.364,0,0,0-3.36-3.36H85.428a3.364,3.364,0,0,0-3.36,3.36V84.393H76.06V63.765H97.111a1.352,1.352,0,0,0,0-2.7H61.4a1.661,1.661,0,0,1-1.66-1.66Zm57.48,4.364V84.393H113.9V63.765Zm-10.6,15.367V75.812H111.2v3.319Zm4.576,2.7v2.556h-4.576V81.836Zm-4.576-8.729V69.788H111.2v3.319Zm0-6.024V63.765H111.2v3.319Zm-11.418,3.36V84.393H84.773V70.444a.656.656,0,0,1,.655-.655H94.55a.656.656,0,0,1,.656.655ZM68.779,79.132V75.812h4.576v3.319Zm4.576,2.7v2.556H68.779V81.836Zm-4.576-8.729V69.788h4.576v3.319Zm0-6.024V63.765h4.576v3.319Zm-2.7-3.319V84.393H62.755V63.765ZM123.806,88.27c0,.826-.456,1.352-.77,1.352H56.942c-.314,0-.77-.527-.77-1.352V87.1h67.634Z" transform="translate(-53.467)" fill="#fff"/>
</svg>
