<svg id="lion" xmlns="http://www.w3.org/2000/svg" width="92.327" height="92.327" viewBox="0 0 92.327 92.327">
  <g id="Group_4040" data-name="Group 4040" transform="translate(36.324 59.89)">
    <g id="Group_4039" data-name="Group 4039">
      <path id="Path_5365" data-name="Path 5365" d="M220.913,334.254a3.207,3.207,0,0,0-3.046-2.135H204.677a3.244,3.244,0,0,0-2.07,5.739l3.071,2.56a8.734,8.734,0,0,0,11.19,0l3.07-2.56A3.22,3.22,0,0,0,220.913,334.254Zm-2.708,1.526-3.07,2.56a6.03,6.03,0,0,1-7.726,0l-3.071-2.56a.517.517,0,0,1-.165-.605.506.506,0,0,1,.5-.352h13.191a.506.506,0,0,1,.5.352A.518.518,0,0,1,218.206,335.781Z" transform="translate(-201.432 -332.119)" fill="#fff"/>
    </g>
  </g>
  <g id="Group_4042" data-name="Group 4042" transform="translate(26.019 41.92)">
    <g id="Group_4041" data-name="Group 4041">
      <path id="Path_5366" data-name="Path 5366" d="M154.316,236.8a1.352,1.352,0,0,0-1.352,1.352V239.6a2.984,2.984,0,0,1-5.968,0v-1.445a2.987,2.987,0,0,1,2.984-2.984,1.352,1.352,0,0,0,0-2.7,5.7,5.7,0,0,0-5.689,5.689V239.6a5.689,5.689,0,0,0,11.378,0v-1.445A1.352,1.352,0,0,0,154.316,236.8Z" transform="translate(-144.29 -232.468)" fill="#fff"/>
    </g>
  </g>
  <g id="Group_4044" data-name="Group 4044" transform="translate(54.93 41.92)">
    <g id="Group_4043" data-name="Group 4043">
      <path id="Path_5367" data-name="Path 5367" d="M314.639,236.8a1.352,1.352,0,0,0-1.352,1.352V239.6a2.984,2.984,0,0,1-5.968,0v-1.445a2.987,2.987,0,0,1,2.984-2.984,1.352,1.352,0,1,0,0-2.7,5.7,5.7,0,0,0-5.689,5.689V239.6a5.689,5.689,0,0,0,11.378,0v-1.445A1.352,1.352,0,0,0,314.639,236.8Z" transform="translate(-304.613 -232.468)" fill="#fff"/>
    </g>
  </g>
  <g id="Group_4046" data-name="Group 4046">
    <g id="Group_4045" data-name="Group 4045">
      <path id="Path_5368" data-name="Path 5368" d="M86.094,31.615h3.436a1.352,1.352,0,0,0,1.312-1.68,33.228,33.228,0,0,0-10.1-15.291,6.463,6.463,0,0,0-2.118-4.25A6.571,6.571,0,0,0,72.9,8.8c-.184.036-.417.084-.691.147A44.13,44.13,0,0,0,66.08,6.478L67.357,5.2a1.353,1.353,0,0,0-.283-2.129A26.757,26.757,0,0,0,54.836,0a15.427,15.427,0,0,0-7.893,2.014,1.518,1.518,0,0,1-1.56,0A15.426,15.426,0,0,0,37.491,0,26.756,26.756,0,0,0,25.253,3.071,1.353,1.353,0,0,0,24.97,5.2l1.278,1.278a44.13,44.13,0,0,0-6.133,2.466c-.274-.063-.507-.111-.691-.147a6.57,6.57,0,0,0-5.717,1.6,6.463,6.463,0,0,0-2.118,4.25,33.224,33.224,0,0,0-10.1,15.291A1.352,1.352,0,0,0,2.8,31.615H6.234C.075,43.07,0,57.1,0,57.728a1.352,1.352,0,0,0,1.78,1.283l2.62-.874c.227,3.993,1.259,13.549,5.945,20.578a1.353,1.353,0,0,0,1.876.375l3.2-2.135A38.718,38.718,0,0,0,26.676,87.8a1.352,1.352,0,0,0,1.652-.2l2.063-2.064c2.3,1.646,8.393,5.577,15.522,6.773l.019,0,.016,0a1.35,1.35,0,0,0,.214.018h0a1.33,1.33,0,0,0,.214-.018l.035-.005c7.129-1.2,13.219-5.126,15.522-6.773L64,87.594a1.352,1.352,0,0,0,1.652.2A38.718,38.718,0,0,0,76.9,76.956l3.2,2.135a1.353,1.353,0,0,0,1.876-.375c4.686-7.029,5.718-16.585,5.945-20.578l2.62.874a1.352,1.352,0,0,0,1.78-1.283C92.327,57.1,92.252,43.07,86.094,31.615ZM73.418,11.452a3.886,3.886,0,0,1,3.282.857,8.854,8.854,0,0,0-1.444.106A13.5,13.5,0,0,0,70.9,14.136a1.352,1.352,0,0,0,1.347,2.346,11.054,11.054,0,0,1,3.415-1.392c1.231-.186,1.918,0,2.152.234a1.015,1.015,0,0,1,.175.751A27.188,27.188,0,0,1,72.8,28.8a35.564,35.564,0,0,0-5.564-8.463c.222-.219.446-.435.674-.644a1.353,1.353,0,0,0-1.832-1.99c-.26.239-.516.485-.768.734q-.5-.438-.973-.806a7.757,7.757,0,0,0-2.357-1.246A32.975,32.975,0,0,1,73.418,11.452ZM63.137,65.421a1.352,1.352,0,0,0-1.352,1.352,8.316,8.316,0,0,1-8.266,8.347,8.118,8.118,0,0,1-5.128-1.8,3.538,3.538,0,0,0-4.453,0,8.118,8.118,0,0,1-5.128,1.805,8.316,8.316,0,0,1-8.266-8.347,1.352,1.352,0,1,0-2.7,0,11.07,11.07,0,0,0,4.811,9.14,42.171,42.171,0,0,1-10.761-5.768c-3.339-2.485-5.777-5.218-6.214-6.964-.632-2.529-.355-10.936,1.811-20.142,1.486-6.315,5.042-17.736,12.162-23.274,3.8-2.958,11.7.572,15.163,2.587v2.128a1.352,1.352,0,0,0,2.7,0V22.352c3.458-2.017,11.352-5.55,15.163-2.586C69.8,25.3,73.356,36.725,74.842,43.04c2.166,9.206,2.444,17.612,1.811,20.142-.436,1.746-2.875,4.479-6.214,6.964a42.177,42.177,0,0,1-10.761,5.768,11.07,11.07,0,0,0,4.811-9.14A1.353,1.353,0,0,0,63.137,65.421ZM56.2,77.491a8.32,8.32,0,0,1-7.609,4.9h-4.85a8.309,8.309,0,0,1-7.611-4.9,10.892,10.892,0,0,0,9.5-2.064.85.85,0,0,1,1.069,0,10.892,10.892,0,0,0,9.5,2.065ZM29.166,8.441a1.353,1.353,0,0,0,.608-2.263L28.235,4.639A24.416,24.416,0,0,1,37.491,2.7a12.728,12.728,0,0,1,6.52,1.64,4.243,4.243,0,0,0,4.3,0,12.728,12.728,0,0,1,6.52-1.64A24.5,24.5,0,0,1,64.09,4.642L62.553,6.178a1.353,1.353,0,0,0,.608,2.263,43.941,43.941,0,0,1,5.117,1.7,39.006,39.006,0,0,0-10.3,5.793A21.329,21.329,0,0,0,52.248,17.2a38.234,38.234,0,0,0-6.084,2.811A38.238,38.238,0,0,0,40.079,17.2a21.322,21.322,0,0,0-5.736-1.268,39,39,0,0,0-10.3-5.793A43.99,43.99,0,0,1,29.166,8.441ZM18.909,11.452a32.969,32.969,0,0,1,11.435,4.933,7.757,7.757,0,0,0-2.357,1.246q-.474.368-.973.806c-3.695-3.657-7.669-5.679-9.943-6.022a8.852,8.852,0,0,0-1.444-.106A3.888,3.888,0,0,1,18.909,11.452Zm-4.393,3.872c.234-.235.921-.42,2.152-.234,1.491.225,4.978,1.846,8.421,5.247A35.562,35.562,0,0,0,19.523,28.8a27.186,27.186,0,0,1-5.182-12.725A1.015,1.015,0,0,1,14.516,15.324ZM87.066,55a1.352,1.352,0,0,0-1.78,1.283c0,.12-.058,11.579-4.839,19.784L77.27,73.949a1.353,1.353,0,0,0-1.91.429A37.269,37.269,0,0,1,65.15,84.92l-2.129-2.129a1.353,1.353,0,0,0-1.8-.1c-.069.055-6.923,5.476-15.056,6.909-8.11-1.429-14.987-6.854-15.056-6.909a1.352,1.352,0,0,0-1.8.1l-2.129,2.129a37.444,37.444,0,0,1-10.21-10.542,1.353,1.353,0,0,0-1.91-.429l-3.176,2.118C7.109,67.874,7.042,56.4,7.042,56.282A1.352,1.352,0,0,0,5.261,55l-2.484.828c.26-4.5,1.457-16.059,6.95-24.848A1.353,1.353,0,0,0,8.58,28.91H4.686a32.387,32.387,0,0,1,7.231-10.862,29.445,29.445,0,0,0,6.375,13.492,70.209,70.209,0,0,0-3.439,10.88c-2.172,9.231-2.622,18.138-1.8,21.417.605,2.422,3.238,5.512,7.223,8.478a44.518,44.518,0,0,0,13.666,6.863,11.005,11.005,0,0,0,9.8,5.92h4.85a11.02,11.02,0,0,0,9.8-5.92,44.516,44.516,0,0,0,13.667-6.864c3.985-2.966,6.618-6.056,7.223-8.478.82-3.279.37-12.186-1.8-21.417a70.209,70.209,0,0,0-3.439-10.88,29.445,29.445,0,0,0,6.375-13.492A32.382,32.382,0,0,1,87.642,28.91H83.747A1.353,1.353,0,0,0,82.6,30.98c5.493,8.789,6.69,20.352,6.95,24.848Z" fill="#fff"/>
    </g>
  </g>
  <g id="Group_4048" data-name="Group 4048" transform="translate(44.811 28.91)">
    <g id="Group_4047" data-name="Group 4047">
      <path id="Path_5369" data-name="Path 5369" d="M249.852,160.322a1.352,1.352,0,0,0-1.352,1.352V168.9a1.352,1.352,0,1,0,2.7,0v-7.228A1.352,1.352,0,0,0,249.852,160.322Z" transform="translate(-248.5 -160.322)" fill="#fff"/>
    </g>
  </g>
</svg>
